<?xml version="1.0" encoding="UTF-8" standalone="no"?>
<!DOCTYPE svg PUBLIC "-//W3C//DTD SVG 1.1//EN" "http://www.w3.org/Graphics/SVG/1.1/DTD/svg11.dtd">
<svg version="1.1" xmlns="http://www.w3.org/2000/svg" xmlns:xlink="http://www.w3.org/1999/xlink" preserveAspectRatio="xMidYMid meet" viewBox="0 0 630 350" width="630" height="350"><defs><path d="M159.28 34.94L160.72 35.16L162.11 35.46L163.45 35.84L164.75 36.3L166.01 36.84L167.21 37.46L168.37 38.16L169.49 38.94L170.56 39.8L171.58 40.74L172.56 41.76L173.49 42.86L174.37 44.04L175.21 45.3L176.01 46.64L176.76 48.05L177.46 49.55L178.11 51.13L178.72 52.79L179.29 54.52L179.81 56.34L180.28 58.24L180.71 60.21L181.09 62.27L181.42 64.41L181.71 66.62L181.95 68.92L182.15 71.29L182.3 73.75L182.41 76.28L182.47 78.9L182.48 81.59L182.45 84.37L182.37 87.22L182.25 90.15L182.08 93.17L181.86 96.26L181.6 99.43L181.16 104.73L180.81 109.71L180.53 114.41L180.33 118.81L180.21 122.94L180.15 126.8L180.16 130.4L180.24 133.73L180.38 136.83L180.57 139.68L180.82 142.3L181.12 144.7L181.48 146.88L181.87 148.85L182.31 150.62L182.79 152.2L183.31 153.6L183.86 154.82L184.44 155.87L185.04 156.76L185.67 157.49L186.33 158.08L187 158.53L187.68 158.86L188.38 159.06L189.08 159.14L189.79 159.12L190.5 159L191.22 158.79L191.92 158.5L192.63 158.14L193.32 157.7L194 157.21L194.66 156.66L195.3 156.08L195.92 155.45L196.52 154.8L197.08 154.13L197.62 153.44L198.12 152.76L198.61 152.06L199.11 151.35L199.64 150.62L200.17 149.87L200.73 149.1L201.29 148.31L201.87 147.49L202.46 146.65L203.06 145.78L203.68 144.87L204.3 143.93L204.94 142.96L205.58 141.96L206.23 140.91L206.89 139.82L207.56 138.69L208.23 137.52L208.9 136.3L209.59 135.04L210.27 133.72L210.96 132.35L211.66 130.93L212.35 129.45L213.05 127.92L213.74 126.33L214.44 124.67L215.13 122.95L215.83 121.17L216.52 119.32L217.21 117.41L217.9 115.42L218.58 113.36L219.26 111.22L219.93 109.01L220.59 106.72L221.25 104.35L221.9 101.9L222.55 99.37L223.18 96.75L223.81 94.04L224.42 91.32L225.02 88.65L225.62 86.04L226.21 83.48L226.79 80.99L227.36 78.56L227.93 76.19L228.49 73.88L229.04 71.64L229.6 69.46L230.15 67.34L230.69 65.3L231.24 63.32L231.78 61.41L232.32 59.58L232.86 57.81L233.4 56.12L233.95 54.5L234.49 52.96L235.04 51.49L235.6 50.11L236.15 48.8L236.71 47.56L237.28 46.41L237.85 45.35L238.43 44.36L239.02 43.46L239.62 42.65L240.22 41.92L240.83 41.27L241.46 40.72L242.09 40.26L242.74 39.88L243.4 39.6L244.07 39.42L244.76 39.32L245.46 39.32L246.18 39.42L246.91 39.62L247.66 39.91L248.43 40.24L249.21 40.56L250.01 40.87L250.81 41.2L251.61 41.55L252.4 41.94L253.18 42.38L253.93 42.89L254.66 43.48L255.36 44.16L256.01 44.95L256.62 45.85L257.17 46.9L257.66 48.08L258.09 49.43L258.45 50.96L258.72 52.67L258.91 54.58L259.01 56.71L259.01 59.06L258.91 61.66L258.69 64.51L258.36 67.64L257.9 71.04L257.31 74.74L256.58 78.75L255.71 83.09L254.69 87.76L253.51 92.78L252.17 98.17L250.66 103.93L248.98 110.09L247.11 116.65L245.06 123.62L242.8 131.03L240.35 138.89L237.69 147.2L234.81 155.99L231.72 165.26L229.42 172.02L229.44 172.2L229.47 172.38L229.51 172.55L229.55 172.71L229.6 172.86L229.66 173.01L229.72 173.14L229.79 173.27L229.86 173.38L229.94 173.49L230.03 173.59L230.12 173.68L230.22 173.76L230.33 173.83L230.44 173.89L230.56 173.94L230.68 173.98L230.81 174.02L230.95 174.04L231.1 174.06L231.37 173.99L231.74 173.77L232.2 173.4L232.76 172.89L233.39 172.25L234.11 171.48L234.9 170.6L235.76 169.61L236.68 168.52L237.66 167.34L238.7 166.08L239.78 164.74L240.91 163.34L242.08 161.88L243.28 160.37L244.51 158.81L245.76 157.22L247.03 155.61L248.32 153.98L249.61 152.34L250.91 150.7L252.2 149.06L253.49 147.44L254.77 145.85L256.03 144.28L257.27 142.76L258.48 141.28L259.66 139.86L260.81 138.5L261.91 137.22L262.97 136.01L263.97 134.9L264.92 133.88L265.8 132.96L266.62 132.16L267.37 131.49L268.04 130.94L268.63 130.53L269.13 130.26L269.54 130.15L269.9 130.13L270.25 130.13L270.59 130.16L270.92 130.21L271.24 130.28L271.55 130.37L271.86 130.48L272.15 130.6L272.43 130.75L272.7 130.91L272.96 131.09L273.22 131.29L273.46 131.5L273.68 131.72L273.9 131.96L274.11 132.21L274.3 132.47L274.49 132.75L274.66 133.03L274.82 133.32L274.97 133.62L275.1 133.93L275.23 134.25L275.33 134.57L275.43 134.9L275.52 135.23L275.59 135.57L275.64 135.91L275.69 136.25L275.72 136.6L275.73 136.94L275.73 137.29L275.72 137.63L275.69 137.97L275.65 138.31L275.59 138.65L275.52 138.99L275.43 139.32L275.33 139.64L275.21 139.96L275.06 140.3L274.86 140.7L274.61 141.15L274.32 141.65L273.98 142.2L273.6 142.8L273.18 143.43L272.72 144.11L272.22 144.82L271.69 145.57L271.13 146.35L270.53 147.16L269.9 148L269.25 148.86L268.57 149.75L267.87 150.66L267.14 151.58L266.39 152.52L265.62 153.47L264.84 154.43L264.04 155.4L263.23 156.37L262.4 157.35L261.57 158.32L260.73 159.3L259.88 160.26L259.02 161.23L258.17 162.18L257.31 163.11L256.45 164.04L255.6 164.94L254.75 165.83L253.91 166.69L253.07 167.53L252.24 168.34L251.43 169.12L250.63 169.87L249.84 170.58L249.07 171.26L248.32 171.89L247.82 172.32L247.29 172.78L246.75 173.26L246.18 173.79L245.6 174.34L244.99 174.92L244.36 175.54L243.71 176.19L243.04 176.87L242.35 177.58L241.64 178.32L240.91 179.1L240.15 179.9L239.38 180.74L238.58 181.61L237.77 182.51L236.93 183.45L236.08 184.41L235.2 185.41L234.3 186.44L233.38 187.5L232.44 188.59L231.48 189.72L230.5 190.88L229.5 192.06L228.47 193.28L227.43 194.54L226.37 195.82L225.28 197.13L224.18 198.48L223.05 199.86L221.9 201.27L220.74 202.71L219.55 204.19L218.34 205.69L217.11 207.23L216.78 207.64L215.18 211.97L212.04 220.25L208.97 228.15L205.97 235.69L203.03 242.88L200.16 249.71L197.36 256.21L194.62 262.36L191.94 268.19L189.32 273.7L186.77 278.89L184.29 283.77L181.86 288.36L179.5 292.65L177.19 296.65L174.95 300.37L172.77 303.82L170.65 307L168.59 309.93L166.59 312.6L164.65 315.03L162.77 317.21L160.94 319.17L159.17 320.9L157.46 322.42L155.81 323.72L154.21 324.82L152.67 325.73L151.18 326.44L149.75 326.97L148.37 327.32L147.05 327.51L145.78 327.54L144.57 327.4L143.4 327.13L142.29 326.7L141.24 326.15L140.22 325.52L139.23 324.86L138.27 324.16L137.35 323.44L136.46 322.68L135.6 321.89L134.79 321.06L134.01 320.19L133.28 319.28L132.59 318.34L131.95 317.35L131.35 316.32L130.81 315.24L130.31 314.11L129.87 312.94L129.48 311.72L129.15 310.45L128.87 309.12L128.66 307.75L128.51 306.31L128.42 304.82L128.4 303.27L128.44 301.66L128.55 299.99L128.74 298.26L129 296.46L129.33 294.6L129.73 292.67L130.22 290.68L130.79 288.61L131.43 286.47L132.16 284.26L132.98 281.97L133.88 279.61L134.88 277.17L135.96 274.65L137.14 272.05L138.41 269.37L139.77 266.61L141.24 263.77L142.26 261.85L143.3 259.94L144.36 258.06L145.44 256.19L146.54 254.33L147.66 252.49L148.81 250.67L149.97 248.87L151.15 247.08L152.36 245.3L153.59 243.54L154.83 241.8L156.1 240.08L157.39 238.37L158.7 236.67L160.03 234.99L161.38 233.33L162.75 231.69L164.14 230.06L165.55 228.44L166.98 226.85L168.43 225.27L169.91 223.7L171.4 222.15L172.92 220.62L174.45 219.1L176.01 217.6L177.58 216.11L179.18 214.64L180.8 213.19L182.44 211.75L184.1 210.33L185.78 208.93L187.48 207.54L189.2 206.17L190.94 204.81L192.71 203.47L194.49 202.15L196.29 200.84L198.12 199.55L206.56 170.49L205.78 171.44L205.01 172.35L204.24 173.24L203.47 174.1L202.71 174.92L201.95 175.72L201.2 176.49L200.46 177.23L199.72 177.93L198.98 178.61L198.25 179.26L197.52 179.88L196.8 180.46L196.08 181.02L195.37 181.55L194.66 182.05L193.96 182.52L193.26 182.96L192.57 183.37L191.88 183.75L191.2 184.1L190.52 184.42L189.85 184.71L189.18 184.97L188.52 185.2L187.86 185.4L187.21 185.57L186.56 185.71L185.92 185.82L185.28 185.91L184.64 185.96L184.02 185.98L183.39 185.97L182.77 185.93L182.16 185.87L181.55 185.77L180.94 185.64L180.35 185.49L179.75 185.3L179.16 185.08L178.29 184.73L177.44 184.37L176.61 184L175.8 183.61L175.01 183.21L174.24 182.8L173.49 182.37L172.76 181.91L172.04 181.44L171.35 180.95L170.68 180.43L170.03 179.88L169.4 179.31L168.79 178.71L168.2 178.08L167.63 177.41L167.08 176.72L166.55 175.98L166.04 175.21L165.55 174.41L165.08 173.56L164.63 172.67L164.2 171.74L163.79 170.76L163.4 169.74L163.03 168.66L162.68 167.54L162.35 166.37L162.04 165.14L161.75 163.86L161.48 162.53L161.23 161.13L161 159.68L160.78 158.17L160.59 156.59L160.42 154.95L160.27 153.24L160.14 151.47L160.03 149.63L159.94 147.72L159.88 145.78L159.85 143.87L159.85 141.98L159.88 140.12L159.94 138.28L160.02 136.46L160.13 134.66L160.25 132.88L160.4 131.12L160.56 129.38L160.73 127.65L160.92 125.94L161.12 124.24L161.32 122.55L161.53 120.88L161.75 119.22L161.97 117.58L162.19 115.94L162.4 114.31L162.62 112.69L162.82 111.07L163.02 109.46L163.21 107.86L163.38 106.26L163.54 104.66L163.68 103.07L163.81 101.48L163.91 99.88L163.99 98.29L164.05 96.7L164.08 95.1L164.08 93.5L164.05 91.89L163.99 90.28L163.89 88.67L163.75 87.04L163.57 85.41L163.36 83.77L163.1 82.12L162.79 80.46L162.46 78.82L162.11 77.23L161.75 75.7L161.38 74.23L161.01 72.8L160.63 71.42L160.24 70.09L159.85 68.81L159.45 67.57L159.05 66.37L158.65 65.22L158.25 64.1L157.85 63.03L157.45 61.98L157.05 60.98L156.66 60.01L156.27 59.06L155.88 58.15L155.51 57.27L155.14 56.41L154.78 55.58L154.43 54.77L154.09 53.99L153.76 53.22L153.45 52.47L153.15 51.74L152.86 51.02L152.6 50.32L152.35 49.63L152.11 48.95L151.9 48.28L151.71 47.62L151.54 46.96L151.39 46.31L151.27 45.66L151.17 45.01L151.1 44.35L151.05 43.7L151.04 43.04L151.05 42.38L150.94 42.1L150.85 41.82L150.78 41.55L150.72 41.27L150.68 40.99L150.65 40.71L150.64 40.44L150.63 40.16L150.65 39.89L150.67 39.62L150.71 39.35L150.76 39.09L150.83 38.83L150.91 38.58L151 38.32L151.1 38.08L151.21 37.84L151.33 37.6L151.46 37.37L151.61 37.15L151.76 36.94L151.93 36.73L152.1 36.53L152.29 36.34L152.48 36.15L152.68 35.98L152.89 35.82L153.11 35.66L153.34 35.52L153.57 35.38L153.81 35.26L154.06 35.15L154.32 35.05L154.58 34.97L154.85 34.89L155.12 34.83L155.4 34.79L155.69 34.75L155.98 34.74L156.27 34.73L157.8 34.79L159.28 34.94ZM190.05 224.67L189.44 225.1L188.82 225.54L188.2 226L187.58 226.48L186.95 226.98L186.32 227.49L185.69 228.02L185.05 228.57L184.41 229.13L183.76 229.71L183.12 230.31L182.46 230.92L181.81 231.55L181.15 232.2L180.48 232.87L179.81 233.55L179.14 234.24L178.47 234.96L177.79 235.69L177.11 236.44L176.42 237.2L175.73 237.98L175.03 238.78L174.34 239.59L173.64 240.42L172.93 241.27L172.22 242.14L171.51 243.02L170.79 243.92L170.07 244.83L169.35 245.76L168.62 246.71L167.89 247.67L167.15 248.66L166.42 249.66L165.67 250.67L164.93 251.7L163.81 253.29L162.7 254.92L161.6 256.59L160.52 258.3L159.45 260.05L158.4 261.82L157.37 263.62L156.37 265.44L155.38 267.27L154.43 269.12L153.51 270.97L152.62 272.83L151.76 274.69L150.94 276.54L150.16 278.38L149.42 280.21L148.72 282.02L148.07 283.81L147.46 285.57L146.91 287.31L146.4 289L145.96 290.66L145.57 292.27L145.24 293.84L144.97 295.35L144.76 296.81L144.62 298.2L144.55 299.53L144.55 300.79L144.62 301.98L144.77 303.09L144.99 304.12L145.29 305.06L145.68 305.91L146.15 306.66L146.7 307.32L147.35 307.87L148.08 308.31L148.91 308.64L149.51 308.76L150.13 308.76L150.78 308.65L151.45 308.4L152.15 308.04L152.88 307.56L153.63 306.96L154.41 306.23L155.21 305.39L156.04 304.42L156.89 303.34L157.77 302.13L158.68 300.8L159.61 299.35L160.57 297.78L161.55 296.09L162.56 294.28L163.59 292.35L164.65 290.3L165.74 288.12L166.85 285.83L167.99 283.41L169.15 280.88L170.34 278.22L171.55 275.44L172.8 272.54L174.06 269.52L175.35 266.38L176.67 263.12L178.01 259.74L179.38 256.23L180.78 252.61L182.2 248.86L183.64 245L185.12 241.01L186.61 236.9L188.14 232.68L189.69 228.33L191.26 223.86L190.66 224.25L190.05 224.67Z" id="f6qubap1A"></path><path d="M418.95 125.02L419.91 125.25L420.79 125.55L421.58 125.91L422.3 126.34L422.95 126.83L423.52 127.37L424.02 127.98L424.46 128.64L424.83 129.36L425.14 130.13L425.39 130.94L425.58 131.81L425.72 132.71L425.8 133.67L425.84 134.66L425.83 135.69L425.78 136.76L425.68 137.86L425.55 139L425.38 140.16L425.18 141.36L424.94 142.58L424.68 143.82L424.39 145.09L424.08 146.38L423.75 147.68L423.4 149L423.04 150.34L422.66 151.68L422.27 153.04L421.88 154.4L421.47 155.77L421.07 157.14L420.67 158.51L420.27 159.89L419.87 161.26L419.49 162.62L419.11 163.98L418.76 165.31L418.43 166.62L418.14 167.89L417.88 169.13L417.64 170.34L417.43 171.51L417.26 172.65L417.11 173.76L416.99 174.84L416.9 175.89L416.83 176.9L416.79 177.88L416.78 178.83L416.8 179.75L416.84 180.64L416.91 181.5L417.01 182.32L417.13 183.12L417.27 183.88L417.45 184.61L417.64 185.31L417.86 185.98L418.1 186.61L418.37 187.22L418.66 187.8L418.98 188.34L419.31 188.85L419.67 189.34L420.06 189.79L420.46 190.21L420.88 190.6L421.33 190.96L421.8 191.3L422.29 191.6L422.8 191.87L423.33 192.11L423.88 192.32L424.44 192.5L425.03 192.65L425.64 192.77L426.05 192.84L426.44 192.9L426.83 192.96L427.22 193.02L427.59 193.08L427.96 193.13L428.32 193.17L428.67 193.22L429.01 193.26L429.35 193.3L429.67 193.33L429.99 193.36L430.3 193.39L430.61 193.41L430.9 193.43L431.19 193.44L431.47 193.46L431.74 193.47L432 193.47L432.26 193.47L432.5 193.47L432.74 193.47L432.97 193.46L433.2 193.44L433.41 193.43L433.62 193.41L433.82 193.39L434.01 193.36L434.19 193.33L434.37 193.3L434.53 193.26L434.69 193.22L434.85 193.17L434.99 193.13L435.12 193.08L435.25 193.02L435.37 192.96L435.48 192.9L435.58 192.84L435.68 192.77L435.98 192.92L436.26 193.06L436.52 193.21L436.76 193.36L436.98 193.52L437.18 193.67L437.36 193.82L437.52 193.98L437.66 194.13L437.78 194.29L437.88 194.45L437.96 194.61L438.01 194.77L438.05 194.93L438.07 195.09L438.07 195.26L438.05 195.42L438.01 195.59L437.95 195.75L437.87 195.92L437.77 196.09L437.64 196.26L437.5 196.43L437.34 196.6L437.16 196.78L436.96 196.95L436.73 197.13L436.49 197.3L436.23 197.48L435.95 197.66L435.65 197.84L435.32 198.02L434.98 198.2L434.62 198.38L434.24 198.57L433.83 198.75L433.41 198.94L432.97 199.13L432.51 199.31L432.02 199.5L431.27 199.77L430.49 200.02L429.69 200.23L428.87 200.42L428.03 200.58L427.18 200.71L426.3 200.82L425.42 200.89L424.52 200.94L423.61 200.96L422.7 200.95L421.77 200.92L420.85 200.85L419.92 200.76L418.99 200.64L418.06 200.49L417.13 200.31L416.21 200.11L415.29 199.88L414.39 199.62L413.49 199.33L412.61 199.01L411.73 198.66L410.88 198.29L410.04 197.89L409.22 197.46L408.42 197L407.65 196.51L406.9 195.99L406.18 195.45L405.48 194.87L404.82 194.27L404.18 193.64L403.58 192.98L403.02 192.3L402.49 191.58L402.01 190.83L401.56 190.06L401.16 189.26L400.8 188.43L400.51 187.56L400.31 186.65L400.18 185.69L400.13 184.7L400.14 183.68L400.22 182.62L400.35 181.54L400.54 180.43L400.78 179.31L401.05 178.16L401.36 177L401.71 175.84L402.07 174.66L402.46 173.48L402.87 172.3L403.28 171.12L403.69 169.95L404.11 168.79L404.51 167.64L404.91 166.51L405.29 165.4L405.64 164.31L405.97 163.25L406.26 162.21L406.51 161.22L406.72 160.25L406.88 159.33L406.99 158.45L407.03 157.62L407.01 156.84L406.91 156.11L406.74 155.44L406.49 154.83L406.15 154.28L405.72 153.8L405.19 153.39L404.55 153.05L403.81 152.79L402.95 152.61L401.98 152.51L400.96 152.48L400 152.5L399.09 152.56L398.22 152.66L397.4 152.8L396.63 152.98L395.9 153.2L395.2 153.45L394.55 153.74L393.94 154.07L393.36 154.43L392.82 154.82L392.31 155.24L391.83 155.69L391.39 156.17L390.97 156.67L390.58 157.2L390.21 157.75L389.87 158.33L389.55 158.92L389.25 159.54L388.97 160.17L388.71 160.82L388.46 161.49L388.23 162.17L388.01 162.87L387.8 163.57L387.61 164.29L387.41 165.02L387.23 165.75L387.05 166.5L386.88 167.24L386.7 167.99L386.53 168.75L386.35 169.5L386.17 170.26L385.99 171.01L385.8 171.76L385.61 172.51L385.4 173.25L385.19 174L384.98 174.78L384.77 175.57L384.57 176.39L384.36 177.22L384.16 178.06L383.95 178.91L383.75 179.78L383.54 180.65L383.34 181.53L383.13 182.41L382.92 183.29L382.71 184.17L382.49 185.05L382.28 185.92L382.05 186.78L381.83 187.64L381.6 188.48L381.37 189.31L381.13 190.12L380.89 190.91L380.64 191.68L380.39 192.43L380.13 193.15L379.87 193.85L379.6 194.51L379.32 195.15L379.03 195.75L378.74 196.31L378.43 196.83L378.12 197.32L377.8 197.76L377.47 198.16L377.13 198.51L376.78 198.81L376.42 199.06L376.05 199.26L375.67 199.4L375.28 199.48L374.88 199.5L374.47 199.49L374.08 199.48L373.69 199.46L373.32 199.43L372.96 199.4L372.62 199.36L372.28 199.31L371.95 199.25L371.64 199.19L371.34 199.12L371.05 199.03L370.77 198.94L370.5 198.84L370.25 198.72L370 198.6L369.77 198.46L369.55 198.31L369.35 198.15L369.15 197.97L368.97 197.78L368.8 197.57L368.64 197.35L368.49 197.11L368.36 196.86L368.23 196.59L368.12 196.3L368.03 195.99L367.94 195.67L367.87 195.33L367.81 194.96L367.76 194.58L367.73 194.18L367.71 193.75L367.7 193.31L367.7 192.84L367.72 192.35L367.74 191.84L367.79 191.3L367.84 190.74L367.91 190.16L368 189.52L368.13 188.78L368.29 187.96L368.48 187.06L368.69 186.09L368.93 185.04L369.19 183.94L369.47 182.78L369.76 181.57L370.07 180.32L370.39 179.03L370.71 177.7L371.04 176.35L371.37 174.98L371.71 173.6L372.03 172.2L372.36 170.8L372.67 169.41L372.97 168.02L373.26 166.65L373.53 165.3L373.78 163.98L374.01 162.69L374.21 161.43L374.39 160.22L374.54 159.06L374.65 157.96L374.73 156.92L374.77 155.94L374.77 155.04L374.72 154.22L374.63 153.48L374.49 152.83L374.29 152.28L374.05 151.84L373.74 151.5L373.37 151.28L372.95 151.17L372.45 151.2L371.89 151.35L371.29 151.62L370.7 151.97L370.11 152.39L369.52 152.9L368.93 153.47L368.35 154.11L367.77 154.82L367.19 155.59L366.62 156.42L366.05 157.3L365.48 158.23L364.92 159.22L364.36 160.24L363.8 161.31L363.25 162.42L362.71 163.56L362.17 164.74L361.63 165.94L361.1 167.17L360.57 168.42L360.05 169.69L359.54 170.97L359.03 172.26L358.53 173.57L358.04 174.87L357.55 176.18L357.07 177.49L356.59 178.79L356.12 180.08L355.66 181.36L355.21 182.63L354.76 183.87L354.33 185.1L353.9 186.3L353.48 187.47L353.06 188.6L352.66 189.71L352.26 190.77L351.87 191.79L351.5 192.77L351.12 193.69L350.74 194.54L350.35 195.33L349.96 196.06L349.57 196.73L349.17 197.34L348.77 197.9L348.36 198.4L347.96 198.86L347.55 199.26L347.14 199.62L346.72 199.94L346.31 200.21L345.89 200.44L345.48 200.64L345.06 200.8L344.65 200.93L344.23 201.02L343.82 201.09L343.41 201.13L343 201.14L342.59 201.13L342.19 201.1L341.79 201.05L341.39 200.99L340.99 200.91L340.6 200.82L340.22 200.72L339.84 200.61L339.46 200.49L339.09 200.37L338.72 200.26L338.37 200.14L338.02 200.02L337.67 199.91L337.33 199.81L337.01 199.71L336.68 199.63L336.37 199.56L336.07 199.5L335.81 199.37L335.65 199.08L335.56 198.62L335.55 198.02L335.61 197.27L335.75 196.39L335.95 195.39L336.21 194.27L336.53 193.04L336.9 191.71L337.32 190.29L337.79 188.78L338.3 187.2L338.85 185.55L339.43 183.85L340.05 182.09L340.69 180.28L341.35 178.45L342.03 176.59L342.72 174.7L343.42 172.81L344.13 170.92L344.84 169.03L345.55 167.16L346.26 165.31L346.95 163.49L347.63 161.71L348.3 159.98L348.94 158.31L349.55 156.69L350.14 155.15L350.7 153.69L351.21 152.32L351.69 151.05L352.11 149.88L352.49 148.82L352.82 147.88L353.09 147.07L353.3 146.41L353.44 145.88L353.53 145.44L353.57 145L353.58 144.57L353.54 144.15L353.46 143.75L353.34 143.37L353.19 143L352.99 142.67L352.76 142.36L352.49 142.09L352.18 141.84L351.84 141.64L351.47 141.48L351.06 141.36L350.62 141.29L350.14 141.27L349.63 141.3L349.1 141.39L348.53 141.53L347.93 141.75L347.3 142.02L346.65 142.37L345.97 142.79L345.26 143.28L344.52 143.85L343.76 144.5L342.97 145.24L342.16 146.07L341.33 146.99L340.48 148L339.6 149.1L338.7 150.31L337.78 151.63L336.84 153.05L335.88 154.57L334.91 156.22L333.92 157.97L332.91 159.85L331.88 161.85L330.84 163.98L329.79 166.12L328.76 168.18L327.73 170.16L326.72 172.06L325.71 173.87L324.72 175.61L323.73 177.26L322.76 178.85L321.79 180.36L320.84 181.79L319.89 183.16L318.96 184.46L318.04 185.69L317.12 186.85L316.22 187.95L315.33 188.99L314.44 189.97L313.57 190.89L312.71 191.75L311.86 192.56L311.02 193.31L310.19 194.01L309.37 194.66L308.57 195.26L307.77 195.81L306.98 196.31L306.21 196.78L305.44 197.19L304.69 197.57L303.95 197.91L303.22 198.21L302.5 198.48L301.79 198.71L301.1 198.91L300.41 199.08L299.74 199.21L299.08 199.32L298.43 199.41L297.79 199.47L297.16 199.5L296.75 199.51L296.35 199.51L295.97 199.49L295.59 199.45L295.23 199.4L294.87 199.33L294.53 199.25L294.2 199.15L293.88 199.04L293.57 198.91L293.28 198.77L292.99 198.61L292.72 198.43L292.46 198.24L292.2 198.04L291.96 197.82L291.73 197.58L291.52 197.33L291.31 197.07L291.11 196.78L290.93 196.49L290.76 196.17L290.59 195.85L290.44 195.5L290.3 195.15L290.18 194.77L290.06 194.38L289.95 193.98L289.86 193.56L289.78 193.12L289.7 192.67L289.64 192.21L289.59 191.73L289.55 191.23L289.53 190.72L289.51 190.19L289.51 189.65L289.51 189.09L289.53 188.52L289.56 187.93L288.52 188.94L287.49 189.9L286.48 190.81L285.48 191.68L284.49 192.5L283.52 193.28L282.55 194.02L281.6 194.7L280.66 195.34L279.74 195.94L278.82 196.49L277.92 197L277.03 197.46L276.16 197.88L275.29 198.25L274.44 198.57L273.61 198.85L272.78 199.09L271.97 199.27L271.17 199.42L270.38 199.52L269.6 199.57L268.84 199.58L268.09 199.54L267.35 199.46L266.62 199.33L265.91 199.15L265.21 198.93L264.52 198.67L263.85 198.36L263.18 198L262.53 197.6L261.9 197.16L261.27 196.67L260.66 196.13L260.06 195.55L259.47 194.92L258.89 194.25L258.33 193.53L257.78 192.77L257.3 192.03L256.85 191.26L256.43 190.45L256.05 189.61L255.7 188.73L255.38 187.82L255.1 186.87L254.84 185.89L254.63 184.87L254.44 183.82L254.28 182.73L254.16 181.6L254.07 180.44L254.02 179.25L253.99 178.02L254 176.75L254.05 175.45L254.12 174.12L254.23 172.75L254.37 171.34L254.54 169.9L254.75 168.42L254.99 166.91L255.26 165.37L255.56 163.78L255.9 162.17L256.27 160.52L256.67 158.83L257.11 157.1L257.57 155.35L258.08 153.55L258.61 151.73L259.17 149.86L259.77 147.96L260.41 146.03L261.07 144.06L261.77 142.05L262.5 140.02L263.26 137.94L264.05 135.83L264.14 135.62L264.23 135.41L264.33 135.21L264.44 135.01L264.55 134.81L264.67 134.62L264.79 134.44L264.92 134.26L265.06 134.09L265.2 133.92L265.35 133.76L265.5 133.6L265.66 133.45L265.82 133.3L265.98 133.16L266.15 133.03L266.33 132.9L266.51 132.78L266.69 132.67L266.88 132.56L267.07 132.45L267.27 132.36L267.46 132.27L267.66 132.19L267.87 132.11L268.07 132.04L268.28 131.98L268.49 131.92L268.71 131.88L268.92 131.84L269.14 131.8L269.36 131.78L269.58 131.76L269.8 131.75L270.02 131.75L270.25 131.75L270.47 131.77L270.7 131.79L270.92 131.82L271.15 131.86L271.36 132.01L271.57 132.17L271.77 132.33L271.96 132.5L272.14 132.66L272.32 132.82L272.49 132.99L272.66 133.16L272.81 133.33L272.96 133.5L273.11 133.67L273.25 133.84L273.38 134.01L273.5 134.19L273.62 134.36L273.73 134.54L273.83 134.72L273.92 134.9L274.01 135.08L274.09 135.26L274.17 135.45L274.24 135.63L274.3 135.82L274.35 136L274.4 136.19L274.44 136.38L274.48 136.57L274.5 136.77L274.52 136.96L274.54 137.16L274.54 137.35L274.54 137.55L274.54 137.75L274.52 137.95L274.5 138.15L274.47 138.35L274.44 138.56L274.4 138.76L274.35 138.97L274.29 139.18L274.19 139.54L274.05 140L273.88 140.56L273.68 141.2L273.46 141.93L273.21 142.74L272.95 143.62L272.67 144.56L272.38 145.57L272.07 146.64L271.76 147.76L271.44 148.92L271.12 150.13L270.81 151.37L270.49 152.64L270.19 153.94L269.89 155.26L269.6 156.6L269.33 157.94L269.08 159.29L268.85 160.64L268.65 161.98L268.47 163.32L268.32 164.64L268.2 165.93L268.12 167.2L268.08 168.44L268.07 169.64L268.12 170.8L268.21 171.91L268.35 172.97L268.54 173.97L268.79 174.91L269.09 175.78L269.46 176.58L269.89 177.29L270.39 177.93L270.96 178.47L271.6 178.92L272.32 179.27L273.09 179.48L273.89 179.49L274.72 179.32L275.57 178.98L276.44 178.49L277.33 177.84L278.24 177.04L279.17 176.11L280.1 175.06L281.06 173.9L282.02 172.62L282.98 171.25L283.96 169.8L284.94 168.26L285.92 166.65L286.9 164.99L287.88 163.27L288.85 161.51L289.82 159.72L290.78 157.91L291.73 156.08L292.67 154.25L293.59 152.42L294.5 150.6L295.39 148.81L296.25 147.05L297.1 145.33L297.92 143.66L298.72 142.05L299.49 140.5L300.23 139.04L300.93 137.66L301.61 136.38L302.24 135.21L302.84 134.14L303.4 133.21L303.91 132.4L304.38 131.74L304.81 131.23L305.19 130.88L305.54 130.63L305.89 130.4L306.24 130.2L306.59 130.02L306.94 129.87L307.28 129.74L307.63 129.64L307.97 129.56L308.31 129.5L308.64 129.46L308.97 129.44L309.3 129.45L309.62 129.47L309.93 129.51L310.24 129.58L310.55 129.66L310.85 129.76L311.14 129.87L311.42 130L311.7 130.15L311.97 130.31L312.23 130.49L312.48 130.69L312.72 130.89L312.96 131.11L313.18 131.35L313.39 131.59L313.6 131.85L313.79 132.11L313.97 132.39L314.13 132.68L314.29 132.98L314.43 133.28L314.56 133.59L314.68 133.91L314.78 134.24L314.87 134.58L314.94 134.92L315 135.26L315.05 135.61L315.05 136.02L314.99 136.55L314.87 137.18L314.69 137.92L314.46 138.76L314.18 139.68L313.86 140.69L313.49 141.78L313.08 142.94L312.63 144.17L312.15 145.46L311.63 146.8L311.09 148.2L310.53 149.63L309.94 151.11L309.34 152.61L308.72 154.14L308.09 155.69L307.45 157.25L306.8 158.82L306.15 160.39L305.51 161.96L304.86 163.52L304.23 165.05L303.6 166.57L302.99 168.06L302.4 169.51L301.83 170.93L301.28 172.29L300.75 173.61L300.26 174.86L299.8 176.06L299.37 177.18L298.99 178.22L298.64 179.19L298.34 180.06L298.1 180.84L297.9 181.52L297.76 182.1L297.67 182.56L297.63 182.98L297.61 183.41L297.61 183.85L297.63 184.3L297.68 184.76L297.75 185.21L297.84 185.66L297.96 186.09L298.1 186.51L298.27 186.91L298.46 187.28L298.69 187.62L298.94 187.92L299.22 188.18L299.53 188.4L299.87 188.57L300.24 188.68L300.65 188.73L301.08 188.72L301.55 188.63L302.05 188.48L302.58 188.24L303.15 187.92L303.76 187.51L304.4 187.01L305.08 186.41L305.79 185.7L306.55 184.89L307.34 183.97L308.17 182.92L309.04 181.76L309.96 180.46L310.91 179.04L311.91 177.48L312.94 175.77L314.03 173.92L315.15 171.92L316.32 169.76L317.54 167.44L318.8 164.95L320.07 162.44L321.33 160.03L322.56 157.72L323.76 155.51L324.95 153.4L326.11 151.39L327.26 149.47L328.38 147.64L329.48 145.91L330.56 144.26L331.62 142.69L332.66 141.21L333.67 139.81L334.67 138.5L335.65 137.25L336.61 136.08L337.55 134.99L338.47 133.96L339.38 133.01L340.26 132.12L341.12 131.29L341.97 130.52L342.8 129.82L343.61 129.17L344.4 128.57L345.18 128.03L345.94 127.54L346.68 127.1L347.4 126.7L348.11 126.35L348.8 126.04L349.48 125.77L350.14 125.54L350.78 125.34L351.41 125.17L352.02 125.04L352.62 124.94L353.2 124.86L353.77 124.8L354.32 124.77L355.06 124.77L355.41 124.79L355.78 124.83L356.14 124.87L356.5 124.93L356.86 125L357.22 125.09L357.59 125.19L357.95 125.3L358.31 125.43L358.67 125.57L359.03 125.72L359.39 125.89L359.75 126.07L360.11 126.26L360.47 126.47L360.83 126.69L361.18 126.92L361.54 127.17L361.9 127.43L362.26 127.7L362.61 127.99L362.97 128.29L363.33 128.6L363.68 128.93L364.04 129.27L364.4 129.62L364.75 129.99L365.11 130.37L365.46 130.76L365.82 131.17L366.17 131.59L366.52 132.03L366.88 132.47L367.23 132.93L367.58 133.41L367.94 133.89L368.29 134.39L368.64 134.91L368.66 134.43L368.7 133.97L368.75 133.52L368.82 133.07L368.91 132.64L369.01 132.23L369.13 131.82L369.26 131.42L369.41 131.04L369.58 130.67L369.77 130.3L369.97 129.95L370.18 129.61L370.42 129.29L370.67 128.97L370.93 128.67L371.22 128.37L371.52 128.09L371.83 127.82L372.16 127.56L372.51 127.31L372.88 127.08L373.26 126.85L373.66 126.64L374.07 126.44L374.5 126.25L374.95 126.07L375.41 125.9L375.89 125.74L376.39 125.6L376.9 125.46L377.43 125.34L377.98 125.23L378.54 125.13L379.12 125.04L379.71 124.97L380.32 124.9L380.95 124.85L381.6 124.81L382.26 124.77L384.28 124.77L384.93 124.81L385.68 124.88L386.36 124.98L386.99 125.11L387.55 125.27L388.06 125.44L388.52 125.64L388.93 125.86L389.3 126.09L389.63 126.34L389.92 126.61L390.18 126.89L390.41 127.18L390.61 127.47L390.79 127.78L390.95 128.09L391.09 128.41L391.22 128.73L391.35 129.05L391.46 129.37L391.58 129.69L391.69 130L391.82 130.31L391.95 130.61L392.09 130.9L392.25 131.18L392.42 131.45L392.62 131.7L392.85 131.94L393.1 132.16L393.39 132.36L393.71 132.54L394.08 132.69L394.49 132.83L394.94 132.93L395.45 133.01L396.01 133.06L396.62 133.07L397.25 133.06L397.83 133.01L398.36 132.93L398.86 132.82L399.32 132.69L399.75 132.53L400.15 132.35L400.52 132.15L400.87 131.92L401.2 131.68L401.51 131.43L401.81 131.15L402.09 130.87L402.37 130.58L402.64 130.27L402.91 129.96L403.18 129.64L403.46 129.32L403.74 129L404.03 128.67L404.34 128.35L404.66 128.03L405 127.72L405.37 127.41L405.76 127.11L406.17 126.82L406.62 126.54L407.11 126.27L407.63 126.02L408.2 125.79L408.8 125.58L409.46 125.38L410.16 125.21L410.92 125.06L411.74 124.94L412.61 124.84L413.55 124.78L413.7 124.77L416.76 124.77L417.9 124.86L418.95 125.02Z" id="bmLggYmXu"></path><path d="M507.15 22.58L507.14 22.61L507.22 22.63L507.71 22.86L508.18 23.15L508.61 23.51L509.01 23.93L509.38 24.41L509.71 24.96L510.01 25.58L510.28 26.25L510.52 26.99L510.72 27.8L510.89 28.66L511.03 29.59L511.13 30.59L511.21 31.65L511.25 32.77L511.25 33.96L511.23 35.21L511.17 36.52L511.08 37.9L510.96 39.34L510.8 40.85L510.61 42.42L510.39 44.05L510.13 45.75L509.85 47.51L509.53 49.34L509.17 51.23L508.79 53.18L508.37 55.2L507.92 57.28L507.43 59.42L506.92 61.63L506.37 63.9L505.79 66.24L505.17 68.64L504.52 71.1L503.84 73.63L503.13 76.22L502.39 78.87L501.63 81.56L500.87 84.23L500.12 86.89L499.37 89.54L498.63 92.19L497.88 94.82L497.15 97.44L496.41 100.05L495.68 102.66L494.96 105.25L494.24 107.83L493.52 110.41L492.8 112.97L492.09 115.52L491.39 118.07L490.68 120.6L489.99 123.12L489.29 125.64L488.6 128.14L487.91 130.63L487.23 133.12L486.55 135.59L485.87 138.06L485.2 140.51L484.53 142.96L483.86 145.39L483.2 147.82L482.55 150.23L481.89 152.63L481.24 155.03L480.6 157.42L479.95 159.79L479.32 162.16L478.68 164.51L478.05 166.86L477.42 169.19L476.8 171.52L476.18 173.83L475.57 176.14L474.95 178.44L474.87 178.32L474.78 178.21L474.69 178.1L474.59 178L474.5 177.89L474.4 177.79L474.29 177.69L474.19 177.6L474.08 177.5L473.97 177.41L473.85 177.32L473.74 177.23L473.62 177.14L473.49 177.05L473.37 176.97L473.24 176.89L473.11 176.81L472.97 176.74L472.84 176.66L472.7 176.59L472.55 176.52L472.41 176.45L472.26 176.39L472.11 176.32L471.95 176.26L471.8 176.2L471.64 176.14L471.47 176.09L471.33 176.04L471.15 175.99L470.96 175.94L470.78 175.89L470.6 175.84L470.42 175.8L470.24 175.76L470.06 175.72L469.89 175.69L469.71 175.66L469.54 175.63L469.37 175.61L469.2 175.59L469.04 175.57L468.87 175.56L468.71 175.54L468.55 175.54L468.39 175.53L468.23 175.53L468.07 175.53L467.91 175.54L467.76 175.54L467.61 175.56L467.46 175.57L467.31 175.59L467.16 175.61L467.01 175.63L466.87 175.66L466.72 175.69L466.58 175.72L466.44 175.76L466.3 175.8L466.17 175.84L466.03 175.89L465.9 175.94L465.77 175.99L465.63 176.04L465.51 176.1L465.38 176.16L465.86 173.84L466.35 171.5L466.84 169.15L467.33 166.8L467.82 164.43L468.31 162.05L468.8 159.66L469.29 157.26L469.79 154.85L470.28 152.43L470.78 150L471.28 147.56L471.78 145.1L472.28 142.64L472.78 140.17L473.28 137.68L473.78 135.19L474.28 132.68L474.79 130.17L475.29 127.64L475.8 125.1L476.31 122.56L476.82 120L477.33 117.43L477.84 114.85L478.35 112.26L478.86 109.66L479.38 107.05L479.89 104.43L480.41 101.8L480.93 99.15L481.45 96.5L481.97 93.84L482.49 91.16L483.01 88.48L483.53 85.78L484.05 83.08L484.58 80.36L485.1 77.63L485.63 74.9L486.16 72.19L486.69 69.56L487.22 66.99L487.75 64.5L488.28 62.08L488.81 59.73L489.34 57.46L489.87 55.25L490.4 53.12L490.93 51.06L491.47 49.07L492 47.15L492.53 45.3L493.07 43.53L493.6 41.83L494.14 40.2L494.67 38.64L495.21 37.15L495.75 35.73L496.29 34.39L496.82 33.12L497.36 31.92L497.9 30.79L498.44 29.73L498.98 28.75L499.52 27.83L500.06 26.99L500.61 26.22L501.15 25.52L501.69 24.9L502.24 24.34L502.78 23.86L503.32 23.45L503.87 23.11L504.41 22.84L504.96 22.64L505.51 22.52L506.05 22.47L506.6 22.49L506.68 22.5L506.68 22.46L506.92 22.54L507.15 22.58Z" id="h6gR9u1nrP"></path><path d="M475.24 193.42C473.44 199.07 468.31 202.48 463.78 201.04C459.25 199.6 457.03 193.85 458.83 188.2C460.62 182.55 465.76 179.14 470.29 180.58C474.81 182.02 477.03 187.77 475.24 193.42Z" id="aQNY7DXmd"></path></defs><g><g><g><g><use xlink:href="#f6qubap1A" opacity="1" fill="#d2215c" fill-opacity="1"></use></g><g><use xlink:href="#bmLggYmXu" opacity="1" fill="#d2215c" fill-opacity="1"></use></g><g><g><use xlink:href="#h6gR9u1nrP" opacity="1" fill="#d2215c" fill-opacity="1"></use></g><g><use xlink:href="#aQNY7DXmd" opacity="1" fill="#d2215c" fill-opacity="1"></use></g></g></g></g></g></svg>